<svg xmlns="http://www.w3.org/2000/svg" width="26" height="25.812" viewBox="0 0 26 25.812"><g transform="translate(-385.103 -367.979)"><g transform="translate(385.103 367.979)"><path d="M385.1,382.916a3.778,3.778,0,0,0,1.849,3.3,4.4,4.4,0,0,0,2.132.674,2.538,2.538,0,0,0,.4-.032,3.114,3.114,0,0,0,.595,2.22,5.526,5.526,0,0,0,3.11,2.31,6.946,6.946,0,0,0,1.61.195,4.665,4.665,0,0,0,2.453-.616,2.448,2.448,0,0,0,1.044-1.863V387.2a.194.194,0,0,0,0-.1v-9h0v-7.872s0-.009,0-.013a2.173,2.173,0,0,0-1.284-1.839,4.352,4.352,0,0,0-2.469-.35,4.536,4.536,0,0,0-2.649,1.17,2.509,2.509,0,0,0-.754,2.3,4.856,4.856,0,0,0-3.713,1.025,3.36,3.36,0,0,0-1.283,3.423,2.484,2.484,0,0,0,1.25,1.608,2.378,2.378,0,0,0-.354,2.166A3.8,3.8,0,0,0,385.1,382.916Z" transform="translate(-385.103 -367.979)" fill="#e8ebef"/></g><g transform="translate(397.901 370.182)"><path d="M631.025,412.193a2.378,2.378,0,0,0-.354-2.166,2.483,2.483,0,0,0,1.25-1.608A3.36,3.36,0,0,0,630.638,405a4.857,4.857,0,0,0-3.713-1.026,2.509,2.509,0,0,0-.754-2.3,4.536,4.536,0,0,0-2.649-1.17,4.353,4.353,0,0,0-2.469.35,2.173,2.173,0,0,0-1.284,1.839s0,.009,0,.013v7.872h0v9a.2.2,0,0,0,0,.1v1.909a2.448,2.448,0,0,0,1.044,1.863,4.665,4.665,0,0,0,2.453.616,6.951,6.951,0,0,0,1.61-.195,5.526,5.526,0,0,0,3.11-2.31,3.114,3.114,0,0,0,.595-2.22,2.54,2.54,0,0,0,.4.032,4.4,4.4,0,0,0,2.132-.674,3.742,3.742,0,0,0-.088-6.507Z" transform="translate(-619.761 -400.458)" fill="#bbddde"/></g><g transform="translate(386.116 369.138)"><path d="M413.283,404.314a.217.217,0,0,0,0-.106v-9h0v-7.873s0-.009,0-.013a2.2,2.2,0,0,0-1.3-1.858,4.378,4.378,0,0,0-2.485-.352,4.561,4.561,0,0,0-2.664,1.178,2.538,2.538,0,0,0-.767,2.288,4.883,4.883,0,0,0-3.7,1.036,3.381,3.381,0,0,0-1.291,3.445,2.508,2.508,0,0,0,1.24,1.611,2.4,2.4,0,0,0-.349,2.151,3.763,3.763,0,0,0-.073,6.535,4.426,4.426,0,0,0,2.146.678,2.581,2.581,0,0,0,.375-.027,3.145,3.145,0,0,0,.6,2.2,5.55,5.55,0,0,0,3.125,2.32,6.967,6.967,0,0,0,1.616.2,4.694,4.694,0,0,0,2.468-.62,2.475,2.475,0,0,0,1.055-1.881v-1.907Zm-1.369,3.393a4.908,4.908,0,0,1-3.627.353,5.01,5.01,0,0,1-2.8-2.106,2.7,2.7,0,0,1-.523-1.918,1.949,1.949,0,0,1,1.208-1.5l.007,0a2.479,2.479,0,0,0,.515.268,2.83,2.83,0,0,0,2.372-.2.225.225,0,0,0,.072-.336.3.3,0,0,0-.379-.064,2.207,2.207,0,0,1-1.852.16,1.814,1.814,0,0,1-1.154-1.293,1.646,1.646,0,0,1,.6-1.559.223.223,0,0,0,.017-.341.3.3,0,0,0-.385-.015,2.012,2.012,0,0,0-.226,3.031,2.473,2.473,0,0,0-1.2,1.3,3.2,3.2,0,0,1-2.349-.52,3.308,3.308,0,0,1-.021-5.685,2.157,2.157,0,0,0,1.82,1,1.956,1.956,0,0,0,1.152-.357.223.223,0,0,0,.036-.34.3.3,0,0,0-.384-.032,1.463,1.463,0,0,1-1.225.187,1.654,1.654,0,0,1-.976-.778,1.843,1.843,0,0,1-.179-1.213,1.806,1.806,0,0,1,.718-1.17,1.479,1.479,0,0,1,1.355-.18.289.289,0,0,0,.363-.116.231.231,0,0,0-.131-.321,2.094,2.094,0,0,0-1.924.237c-.046.032-.09.068-.133.1a2.007,2.007,0,0,1-1.067-1.336,2.9,2.9,0,0,1,1.127-2.987,4.28,4.28,0,0,1,3.395-.889,1.391,1.391,0,0,0-.006,1.525.282.282,0,0,0,.235.119.3.3,0,0,0,.138-.033.227.227,0,0,0,.1-.331.969.969,0,0,1,.2-1.254,1.315,1.315,0,0,1,1.422-.122.294.294,0,0,0,.377-.072.226.226,0,0,0-.082-.334,1.933,1.933,0,0,0-1.879.026,2.053,2.053,0,0,1,.61-1.992,4,4,0,0,1,2.332-1.021,3.784,3.784,0,0,1,2.137.292,1.714,1.714,0,0,1,1.023,1.5.227.227,0,0,0,0,.027v3.279a3.2,3.2,0,0,1-1.694-.118,1.921,1.921,0,0,1-1.177-1.141,1.285,1.285,0,0,1,.458-1.4.223.223,0,0,0,.037-.34.3.3,0,0,0-.384-.033,1.726,1.726,0,0,0-.637,1.9,2.4,2.4,0,0,0,1.488,1.458,3.563,3.563,0,0,0,1.259.219,4.208,4.208,0,0,0,.65-.052v3.976a1.952,1.952,0,0,1-1.763.942,1.7,1.7,0,0,1-1.482-1.1,2.2,2.2,0,0,0,.613-.875,2.1,2.1,0,0,0-.666-2.32.3.3,0,0,0-.386.01.223.223,0,0,0,.011.341,1.67,1.67,0,0,1,.522,1.819,2,2,0,0,1-1.633,1.2,2.147,2.147,0,0,1-1.918-.8.294.294,0,0,0-.377-.074.226.226,0,0,0-.083.334,2.674,2.674,0,0,0,2.145,1.034,2.684,2.684,0,0,0,1.316-.344,2.265,2.265,0,0,0,1.89,1.262q.078.006.156.006a2.653,2.653,0,0,0,1.653-.619v7.7a2.768,2.768,0,0,0-2.372-.308,2.178,2.178,0,0,0-1.484,2.313.265.265,0,0,0,.269.2.311.311,0,0,0,.043,0,.247.247,0,0,0,.227-.276,1.685,1.685,0,0,1,1.148-1.789,2.092,2.092,0,0,1,2.169.528v1.883s0,.005,0,.008,0,.005,0,.008A2.012,2.012,0,0,1,411.913,407.707Z" transform="translate(-400.037 -385.064)" fill="#515a6a"/><path d="M519.566,596.407a2.072,2.072,0,0,0,1.661-3.333.273.273,0,0,0-.433.332,1.527,1.527,0,1,1-2.662,1.407.273.273,0,0,0-.518.171,2.128,2.128,0,0,0,1.776,1.415C519.448,596.4,519.507,596.407,519.566,596.407Z" transform="translate(-510.703 -580.713)" fill="#515a6a"/><path d="M615.915,396.815a2.4,2.4,0,0,0-.349-2.151,2.507,2.507,0,0,0,1.24-1.611,3.381,3.381,0,0,0-1.291-3.445,4.883,4.883,0,0,0-3.7-1.036,2.539,2.539,0,0,0-.767-2.288,4.561,4.561,0,0,0-2.664-1.178,4.379,4.379,0,0,0-2.485.352,2.2,2.2,0,0,0-1.3,1.858s0,.009,0,.013V395.2h0v9a.213.213,0,0,0,0,.106v1.907a2.476,2.476,0,0,0,1.055,1.881,4.692,4.692,0,0,0,2.468.62,6.97,6.97,0,0,0,1.616-.2,5.549,5.549,0,0,0,3.125-2.32,3.145,3.145,0,0,0,.6-2.2,2.582,2.582,0,0,0,.375.027,4.426,4.426,0,0,0,2.146-.678,3.763,3.763,0,0,0-.073-6.535Zm-.239,6.138a3.2,3.2,0,0,1-2.349.52,2.473,2.473,0,0,0-1.2-1.3,2.012,2.012,0,0,0-.226-3.031.3.3,0,0,0-.385.015.223.223,0,0,0,.017.341,1.646,1.646,0,0,1,.6,1.559,1.815,1.815,0,0,1-1.154,1.293,2.208,2.208,0,0,1-1.852-.16.3.3,0,0,0-.379.064.225.225,0,0,0,.073.336,2.83,2.83,0,0,0,2.372.2,2.478,2.478,0,0,0,.515-.268l.007,0a1.949,1.949,0,0,1,1.208,1.5,2.7,2.7,0,0,1-.523,1.918,5.01,5.01,0,0,1-2.8,2.106,4.909,4.909,0,0,1-3.627-.353,2.012,2.012,0,0,1-.824-1.472s0-.005,0-.008,0-.005,0-.008v-1.884a2.092,2.092,0,0,1,2.169-.528,1.685,1.685,0,0,1,1.148,1.789.247.247,0,0,0,.227.276.314.314,0,0,0,.043,0,.265.265,0,0,0,.269-.2,2.179,2.179,0,0,0-1.484-2.313,2.768,2.768,0,0,0-2.372.308v-7.7a2.652,2.652,0,0,0,1.653.619q.078,0,.156-.006a2.266,2.266,0,0,0,1.89-1.262,2.684,2.684,0,0,0,1.316.344,2.674,2.674,0,0,0,2.145-1.034.226.226,0,0,0-.083-.334.294.294,0,0,0-.376.074,2.147,2.147,0,0,1-1.918.8,2,2,0,0,1-1.633-1.2,1.669,1.669,0,0,1,.522-1.819.223.223,0,0,0,.011-.341.3.3,0,0,0-.386-.01,2.1,2.1,0,0,0-.666,2.32,2.194,2.194,0,0,0,.613.875,1.7,1.7,0,0,1-1.482,1.1,1.952,1.952,0,0,1-1.763-.942V391.18a4.206,4.206,0,0,0,.65.052,3.563,3.563,0,0,0,1.259-.219,2.4,2.4,0,0,0,1.489-1.458,1.726,1.726,0,0,0-.636-1.9.3.3,0,0,0-.384.033.223.223,0,0,0,.037.34,1.285,1.285,0,0,1,.458,1.4,1.921,1.921,0,0,1-1.177,1.141,3.2,3.2,0,0,1-1.694.118v-3.279a.264.264,0,0,0,0-.027,1.714,1.714,0,0,1,1.023-1.5,3.783,3.783,0,0,1,2.137-.292,4,4,0,0,1,2.332,1.021,2.053,2.053,0,0,1,.61,1.992,1.933,1.933,0,0,0-1.879-.026.226.226,0,0,0-.081.334.294.294,0,0,0,.377.072,1.315,1.315,0,0,1,1.422.122.968.968,0,0,1,.2,1.254.227.227,0,0,0,.1.331.3.3,0,0,0,.138.033.282.282,0,0,0,.235-.119,1.39,1.39,0,0,0-.006-1.525,4.28,4.28,0,0,1,3.395.889,2.9,2.9,0,0,1,1.127,2.987,2.007,2.007,0,0,1-1.068,1.336c-.043-.035-.087-.071-.134-.1a2.094,2.094,0,0,0-1.923-.237.23.23,0,0,0-.131.321.289.289,0,0,0,.363.116,1.479,1.479,0,0,1,1.355.18,1.807,1.807,0,0,1,.718,1.17,1.845,1.845,0,0,1-.179,1.213,1.653,1.653,0,0,1-.977.778,1.463,1.463,0,0,1-1.225-.187.3.3,0,0,0-.384.032.223.223,0,0,0,.036.34,1.955,1.955,0,0,0,1.151.357,2.156,2.156,0,0,0,1.82-1,3.308,3.308,0,0,1-.021,5.685Z" transform="translate(-593.841 -385.064)" fill="#515a6a"/><path d="M626.624,594.64a.273.273,0,0,0-.344.174,1.527,1.527,0,1,1-2.662-1.407.273.273,0,0,0-.433-.332,2.072,2.072,0,0,0,1.66,3.333c.059,0,.118,0,.177-.008a2.128,2.128,0,0,0,1.776-1.415A.273.273,0,0,0,626.624,594.64Z" transform="translate(-609.7 -580.713)" fill="#515a6a"/></g></g></svg>