<svg xmlns="http://www.w3.org/2000/svg" width="32.556" height="26.271" viewBox="0 0 32.556 26.271"><g transform="translate(-909.722 -1443.729)"><g transform="translate(909.722 1443.729)"><path d="M1242.995,1437.813h5.117v1.781H1253v3.068h1.544v15.293H1253v3.158h-4.891v2.971h-5.117v-4.662h3.583v-1.467h-5.136v-3H1239.8v-1.468h-1.717v-9.428h3.356v-3.029h1.553Z" transform="translate(-1238.085 -1437.813)" fill="#191919"/><path d="M1249.636,1437.813h-5.117v1.781h-4.891v3.068h-1.544v15.293h1.544v3.158h4.891v2.971h5.117v-4.662h-3.583v-1.467h5.136v-3h1.639v-1.468h1.717v-9.428h-3.356v-3.029h-1.554Z" transform="translate(-1221.99 -1437.813)" fill="#191919"/><rect width="2.266" height="2.266" transform="translate(6.388 1.225)" fill="#9170bf"/><rect width="2.266" height="2.266" transform="translate(24.035 1.225)" fill="#9170bf"/><path d="M1275.335,1474.192v3.053h1.779v-1.45h1.4v-1.6Z" transform="translate(-1270.369 -1469.342)" fill="#9170bf"/><path d="M1278.51,1474.192v3.053h-1.779v-1.45h-1.4v-1.6Z" transform="translate(-1250.92 -1469.342)" fill="#9170bf"/><path d="M1250.926,1497.093h1.663v6h-1.663Z" transform="translate(-1249.214 -1489.19)" fill="#9170bf"/><path d="M1252.589,1497.093h-1.663v6h1.663Z" transform="translate(-1221.745 -1489.19)" fill="#9170bf"/><path d="M1263.4,1472.073h3.257v-4.578h1.57v-1.6h1.59v-1.482h1.611V1461.3h1.775v3.108h3.184v12.646H1273.2v2.907h-3.386v-2.907h-3.16v-3.21H1263.4Z" transform="translate(-1260.023 -1458.169)" fill="#9170bf"/><path d="M1276.385,1472.073h-3.257v-4.578h-1.57v-1.6h-1.589v-1.482h-1.611V1461.3h-1.775v3.108H1263.4v12.646h3.184v2.907h3.386v-2.907h3.16v-3.21h3.257Z" transform="translate(-1247.204 -1458.169)" fill="#9170bf"/><path d="M1312.108,1519.6h3.345v4.647h-3.345Z" transform="translate(-1302.24 -1508.697)" fill="#191919"/><path d="M1315.453,1519.6h-3.345v4.647h3.345Z" transform="translate(-1292.498 -1508.697)" fill="#191919"/></g><g transform="translate(915.977 1466.551)" fill="#9170bf" stroke="#9070bf" stroke-width="1"><rect width="2.266" height="2.266" stroke="none"/><rect x="0.5" y="0.5" width="1.266" height="1.266" fill="none"/></g><g transform="translate(933.707 1466.551)" fill="#9170bf" stroke="#9170c0" stroke-width="1"><rect width="2.266" height="2.266" stroke="none"/><rect x="0.5" y="0.5" width="1.266" height="1.266" fill="none"/></g></g></svg>