<svg xmlns="http://www.w3.org/2000/svg" width="26.242" height="32.46" viewBox="0 0 26.242 32.46"><g transform="translate(-958.567 -46.053)"><path d="M991.984,151.193a11.477,11.477,0,1,0,11.486,11.469,11.479,11.479,0,0,0-11.486-11.469Z" transform="translate(-20.305 -97.277)" fill="#ddd"/><path d="M1033.153,208.6a4.781,4.781,0,0,0,4.787,4.78l0,2.98a7.763,7.763,0,1,1-.011-15.525l0,2.983a4.78,4.78,0,0,0-4.779,4.782Z" transform="translate(-66.247 -143.21)" fill="#dd2703"/><path d="M961.549,142.325A10.151,10.151,0,0,0,971.7,152.459l0,2.98a13.121,13.121,0,1,1-.019-26.241l0,2.983a10.151,10.151,0,0,0-10.132,10.145Z" transform="translate(0 -76.926)" fill="#dd2703"/><path d="M1103.45,271.611l0,4.939a2.469,2.469,0,1,1,0-4.939Z" transform="translate(-131.764 -208.688)" fill="#dd2703"/><path d="M1136.453,274.081a2.47,2.47,0,0,1-2.468,2.468l0-4.939a2.472,2.472,0,0,1,2.472,2.471Z" transform="translate(-162.294 -208.688)" fill="#dd2703"/><path d="M1141.7,208.6a7.773,7.773,0,0,1-7.758,7.769l0-2.98a4.781,4.781,0,0,0-.007-9.562l0-2.983a7.774,7.774,0,0,1,7.769,7.756Z" transform="translate(-162.249 -143.21)" fill="#dd2703"/><path d="M1147.006,142.308a13.134,13.134,0,0,1-13.11,13.131l0-2.98a10.139,10.139,0,0,0-.014-20.279l0-2.983a13.137,13.137,0,0,1,13.13,13.111Z" transform="translate(-162.197 -76.926)" fill="#dd2703"/><path d="M1137.336,79.6l.545.27-8.192,16.56a.608.608,0,0,1-.275-.815Z" transform="translate(-158.01 -31.038)" fill="#434444"/><path d="M1142.068,83.205l.546.27-7.923,16.015a.608.608,0,0,1-.815.275Z" transform="translate(-162.197 -34.374)" fill="#222324"/><path d="M1188.157,50.657l1.122,2.889,2.278-4.6-1.122-2.889Z" transform="translate(-212.419 0)" fill="#ddd"/><path d="M1220.725,84.99l-2.977.861,2.278-4.6,2.977-.861Z" transform="translate(-239.796 -31.766)" fill="#ddd"/></g></svg>