<svg xmlns="http://www.w3.org/2000/svg" width="30.328" height="28.844" viewBox="0 0 30.328 28.844"><g transform="translate(-911 -1487.575)"><path d="M544.671,1562l4.686,9.495,10.478,1.523-7.582,7.391,1.79,10.436-9.372-4.927-9.372,4.927,1.79-10.436-7.582-7.391,10.478-1.523Z" transform="translate(381.493 -74.425)" fill="#f7961d"/><path d="M708.489,1571.495l4.686-9.495.036,15.984Z" transform="translate(212.989 -74.425)" fill="#fcee2a"/><path d="M789.147,1730.675l4.65-6.489,10.478,1.523Z" transform="translate(137.053 -227.116)" fill="#fcee2a"/><path d="M628.447,1847.885l9.408-12.86-7.618,2.425Z" transform="translate(288.345 -331.466)" fill="#fcee2a"/><path d="M529.507,1725.709l15.2,4.966-4.722-6.489Z" transform="translate(381.493 -227.116)" fill="#f9c013"/><path d="M788.57,1835.025l-.036,7.933,9.372,4.927Z" transform="translate(137.63 -331.466)" fill="#fcee2a"/><path d="M789.147,1755.161l7.546,2.425,7.582-7.391Z" transform="translate(137.053 -251.601)" fill="#f9c013"/></g></svg>